---
layout: anime

title: "Code:Breaker"
image: https://i.imgur.com/yvVRcZW.jpg
mal: 11703
anidb: 8673
r720: false
r1080: true

desc: >-
  This show was my next randomly picked to watch, but I couldn't find anything with amazing bloat like this release. So, I found the parts and put them together. Do note this was my first dual audio release and I put japanese as the default audio instead of english.
  <br><br>
  The video and audio source is from philosophy-raws, who muxed both jp and eng audio. Subtitles are from Hatsuyuki and CBM. CBM's are just a funi rip with slight styling. The OVAs video and audio is from philosophy-raws once again. The first OVA has Hatsuyuki subs, and the last two are Orphan subs. It's important to point out that the OVAs never got dubbed, so it's sub only.
  <br><br>
  This release is an older one, so it didn't get uploaded in very many places. For DDL links, visit <a href="https://nanda.to/">nanda.to</a>

issues: >-
  • Episode 07 - Subtitle Track 02 says "[sage-koi] Subtitles" when the are actually Signs/songs. They should also be labeled as Hatsuyuki.
  <br>
  • Episode 13 - First set of subtitles say "Signs/Songs" when they are actually the whole english subs


status: Complete
groups: philosophy-raws, Hatsuyuki, CBM, Orphan
vidinfo: .mkv, h264 10-bit

size1080: ~2 GB / Episode @ 1080p (1920x1080) [philosophy-raws]
audio1080a: Japanese 2ch FLAC [philosophy-raws]
audio1080b: English 6ch FLAC [philosophy-raws]
subtitle1: English Dialogue (.ASS) [Hatsuyuki]
subtitle2: Signs/Songs (.ASS) [Hatsuyuki]
subtitle3: English Dialogue (.ASS) [CBM]
subtitle4: Signs/Songs (.ASS) [CBM]

ab1080: https://animebytes.tv/torrents.php?id=12132&torrentid=338147
abs1080: https://animebytes.tv/torrents.php?id=21920&torrentid=338171
abstype1080: OVAs

github: https://github.com/cyc-anime/Code-Breaker
---
General
Unique ID                                : 170859365087252191550062248690780479328 (0x808A5116880EA89A9846F43E0BEC1F60)
Complete name                            : [CyC] Code：Breaker 01v2 (BD 1920x1080 x264 FLAC) [72F4F195].mkv
Format                                   : Matroska
Format version                           : Version 4 / Version 2
File size                                : 1.92 GiB
Duration                                 : 23 min 42 s
Overall bit rate mode                    : Variable
Overall bit rate                         : 11.6 Mb/s
Movie name                               : God's Great Judgment
Encoded date                             : UTC 2017-10-03 02:09:21
Writing application                      : mkvmerge v9.7.1 ('Pandemonium') 64bit
Writing library                          : libebml v1.3.4 + libmatroska v1.4.5
Attachments                              : FixedsysTTF.ttf / Folks-Bold.ttf / FrancophilSans.ttf / FrancophilSans-Bold.ttf / IwaTxtPro-Bd-Madoka.ttf / Parsons.ttf / Slimbach Bold.ttf / Syntax.otf / Ubuntu-B.ttf / Ubuntu-R.ttf / Vermin Vibes eX.ttf / vffree50.ttf / VINHAN.ttf / ADHOC.TTF / ADOBEFANHEITISTD-BOLD.OTF / AdobeHeitiStd-Regular.otf / advent.ttf / Advert-Regular.otf / APJapanesefont.ttf / Comfortaa-Regular.ttf / DFPGothW5-Madoka.ttf / Eurostile.ttf / erasdus0.ttf / jesaya free.ttf / times.ttf / timesbd.ttf

Video
ID                                       : 1
Format                                   : AVC
Format/Info                              : Advanced Video Codec
Format profile                           : High 10@L5
Format settings, CABAC                   : Yes
Format settings, RefFrames               : 13 frames
Codec ID                                 : V_MPEG4/ISO/AVC
Duration                                 : 23 min 42 s
Bit rate                                 : 7 744 kb/s
Width                                    : 1 920 pixels
Height                                   : 1 080 pixels
Display aspect ratio                     : 16:9
Frame rate mode                          : Constant
Frame rate                               : 23.976 (24000/1001) FPS
Color space                              : YUV
Chroma subsampling                       : 4:2:0
Bit depth                                : 10 bits
Scan type                                : Progressive
Bits/(Pixel*Frame)                       : 0.156
Stream size                              : 1.28 GiB (67%)
Writing library                          : x264 core 144 r2525kMod 40bb568
Encoding settings                        : cabac=1 / ref=13 / deblock=1:0:0 / analyse=0x3:0x133 / me=tesa / subme=10 / psy=1 / fade_compensate=0.00 / psy_rd=0.60:0.00 / mixed_ref=1 / me_range=28 / chroma_me=1 / trellis=2 / 8x8dct=1 / cqm=0 / deadzone=21,11 / fast_pskip=0 / chroma_qp_offset=-2 / threads=16 / lookahead_threads=4 / sliced_threads=0 / nr=0 / decimate=1 / interlaced=0 / bluray_compat=0 / constrained_intra=0 / fgo=0 / bframes=12 / b_pyramid=2 / b_adapt=2 / b_bias=0 / direct=3 / weightb=1 / open_gop=0 / weightp=2 / keyint=infinite / keyint_min=1 / scenecut=40 / intra_refresh=0 / rc=crf / mbtree=0 / crf=17.0000 / qcomp=0.70 / qpmin=0 / qpmax=81 / qpstep=4 / ip_ratio=1.40 / pb_ratio=1.30 / aq=3:0.80
Language                                 : Japanese
Default                                  : Yes
Forced                                   : No
Color range                              : Limited
Matrix coefficients                      : BT.709

Audio #1
ID                                       : 2
Format                                   : FLAC
Format/Info                              : Free Lossless Audio Codec
Codec ID                                 : A_FLAC
Duration                                 : 23 min 42 s
Bit rate mode                            : Variable
Bit rate                                 : 1 440 kb/s
Channel(s)                               : 2 channels
Channel positions                        : Front: L R
Sampling rate                            : 48.0 kHz
Frame rate                               : 11.719 FPS (4096 SPF)
Bit depth                                : 24 bits
Stream size                              : 244 MiB (12%)
Writing library                          : libFLAC 1.3.1 (UTC 2014-11-25)
Language                                 : Japanese
Default                                  : Yes
Forced                                   : No

Audio #2
ID                                       : 3
Format                                   : FLAC
Format/Info                              : Free Lossless Audio Codec
Codec ID                                 : A_FLAC
Duration                                 : 23 min 41 s
Bit rate mode                            : Variable
Bit rate                                 : 2 234 kb/s
Channel(s)                               : 6 channels
Channel positions                        : Front: L C R, Side: L R, LFE
Sampling rate                            : 48.0 kHz
Frame rate                               : 11.719 FPS (4096 SPF)
Bit depth                                : 24 bits
Detected bit depth                       : 20 bits
Delay relative to video                  : 23 ms
Stream size                              : 378 MiB (19%)
Writing library                          : libFLAC 1.3.1 (UTC 2014-11-25)
Language                                 : English
Default                                  : No
Forced                                   : No

Text #1
ID                                       : 4
Format                                   : ASS
Codec ID                                 : S_TEXT/ASS
Codec ID/Info                            : Advanced Sub Station Alpha
Duration                                 : 23 min 28 s
Bit rate                                 : 129 b/s
Count of elements                        : 368
Compression mode                         : Lossless
Stream size                              : 22.2 KiB (0%)
Title                                    : [Hatsuyuki] Subtitles
Language                                 : English
Default                                  : Yes
Forced                                   : No

Text #2
ID                                       : 5
Format                                   : ASS
Codec ID                                 : S_TEXT/ASS
Codec ID/Info                            : Advanced Sub Station Alpha
Duration                                 : 23 min 4 s
Bit rate                                 : 39 b/s
Count of elements                        : 81
Compression mode                         : Lossless
Stream size                              : 6.66 KiB (0%)
Title                                    : [Hatsuyuki] Signs/Songs
Language                                 : English
Default                                  : No
Forced                                   : No

Text #3
ID                                       : 6
Format                                   : ASS
Codec ID                                 : S_TEXT/ASS
Codec ID/Info                            : Advanced Sub Station Alpha
Duration                                 : 23 min 28 s
Bit rate                                 : 106 b/s
Count of elements                        : 323
Compression mode                         : Lossless
Stream size                              : 18.3 KiB (0%)
Title                                    : [CBM] Subtitles
Language                                 : English
Default                                  : No
Forced                                   : No

Text #4
ID                                       : 7
Format                                   : ASS
Codec ID                                 : S_TEXT/ASS
Codec ID/Info                            : Advanced Sub Station Alpha
Duration                                 : 23 min 5 s
Bit rate                                 : 13 b/s
Count of elements                        : 29
Compression mode                         : Lossless
Stream size                              : 2.29 KiB (0%)
Title                                    : [CBM] Signs/Songs
Language                                 : English
Default                                  : No
Forced                                   : No

Menu
00:00:00.000                             : en:Prologue
00:01:29.923                             : en:Opening
00:02:59.929                             : en:Episode 1
00:21:54.895                             : en:Ending
00:23:25.027                             : en:Preview